<svg xmlns="http://www.w3.org/2000/svg">
  <symbol id="iconAFX" viewBox="0 0 300 300">
    <path d="M 88.11 173.32 L 80.32 204.25 L 52.88 204.25 L 87.62 79.66 L 122.13 79.66 L 156.55 204.25 L 128.23 204.25 L 119.93 173.32 Z M 116.35 153 L 109.67 126.64 C 107.81 119.21 105.77 108.92 104.06 101.35 L 103.65 101.35 C 101.97 108.96 100.1 119.45 98.31 126.68 L 91.73 153.01 L 116.35 153.01 Z M 189.99 167.93 C 190.66 180.33 201.19 185.78 213.59 185.78 C 222.32 185.78 229.56 184.44 236.19 182.17 L 239.8 200.69 C 231.4 204.12 220.64 205.94 209.42 205.94 C 180.57 205.94 164.18 188.57 164.18 160.35 C 164.18 135.13 178.97 111.9 206.96 111.9 C 233.32 111.9 244.49 132.46 244.49 156.35 C 244.49 161.72 244.05 165.7 243.57 167.93 Z M 219.56 149.35 C 219.62 141.13 216.58 130.3 205.46 130.3 C 194.34 130.3 190.45 141.37 189.84 149.35 Z M 7.65 292.35 L 292.35 292.35 L 292.35 7.65 L 7.65 7.65 Z" />
  </symbol>
</svg>
