<svg xmlns="http://www.w3.org/2000/svg" style="display:none;">
    <symbol id="iconPhotoshop" viewBox="0 0 1000 1000">
        <path
            d="M 571.79 601.74 L 571.78 601.76 C 571.78 601.76 571.77 601.75 571.76 601.75 Z M 644.3 622.19 C 669.49 622.19 682.33 612.74 682.33 596.72 C 682.33 580.7 672.93 572.93 640.86 560.12 C 582.3 537.39 562.19 504.13 562.44 471.14 C 562.44 415.31 607.49 373.23 677.9 373.23 C 710.08 373.23 737.86 380.88 755.6 389.73 L 739.96 452.53 C 727.01 445.55 704.41 436.97 681.68 436.97 C 658.95 436.97 647.5 446.97 647.5 461.64 C 647.5 476.31 657.97 483.38 692.26 497.33 C 745.55 518.46 767.22 548.45 767.48 589.39 C 767.48 647.27 723.57 686.21 644.44 686.21 C 609.46 686.21 575.86 677.96 555.66 666.21 L 571.78 601.76 C 587.26 611.27 619.12 622.19 644.3 622.19 Z M 254.43 271.6 C 281.5 266.75 319.02 263.09 368.31 263.09 C 422.99 263.09 463.39 273.04 490.95 296.12 C 516.88 317.09 532.36 351.53 532.36 390.49 C 532.36 432.45 519.09 466.2 495.33 489.16 C 465.17 518.44 419.25 531.89 370.81 531.89 C 360.47 531.89 351.11 531.31 343.55 530.32 L 343.55 680.58 L 254.42 680.58 L 254.42 271.6 Z M 343.56 459.8 C 350.27 461.28 358.3 461.8 369.38 461.8 C 416.42 461.8 443.35 435.48 443.35 394.44 C 443.35 356.9 420.66 332.41 376.35 332.41 C 361.11 332.41 349.83 333.85 343.57 335.5 L 343.57 459.79 Z M 26.22 973.78 L 973.78 973.78 L 973.78 26.22 L 26.22 26.22 Z" />
    </symbol>
</svg>
