<svg xmlns="http://www.w3.org/2000/svg" style="display: none;">
    <symbol id="bgBack" viewBox="0 0 1024 768">
        <path fill="currentColor"
            d="M58.04,171.96c-2.3,0-4.06-.86-5.29-2.59-1.22-1.72-1.84-4.11-1.84-7.15s.85-5.86,2.56-8.23c1.71-2.37,4.32-4.34,7.85-5.9l2.39,4.95c-2.15.89-3.76,1.98-4.81,3.28-1.06,1.3-1.59,2.88-1.59,4.73l.06,5.68-3.39-4.84c.52-.41,1.2-.77,2.03-1.09.83-.31,1.6-.47,2.31-.47,1.63,0,2.96.5,3.98,1.5,1.02,1,1.53,2.34,1.53,4.01,0,1.86-.55,3.34-1.64,4.45-1.09,1.11-2.48,1.67-4.14,1.67ZM73.62,171.96c-2.3,0-4.06-.86-5.29-2.59-1.22-1.72-1.84-4.11-1.84-7.15s.85-5.86,2.56-8.23c1.71-2.37,4.32-4.34,7.85-5.9l2.39,4.95c-2.15.89-3.76,1.98-4.81,3.28-1.06,1.3-1.59,2.88-1.59,4.73l.06,5.68-3.39-4.84c.52-.41,1.2-.77,2.03-1.09.83-.31,1.6-.47,2.31-.47,1.63,0,2.96.5,3.98,1.5,1.02,1,1.53,2.34,1.53,4.01,0,1.86-.55,3.34-1.64,4.45-1.09,1.11-2.48,1.67-4.15,1.67Z" />
        <path fill="currentColor"
            d="M272.05,11.89l13.12,34.77c.54,1.3,1.11,2.21,1.71,2.73.6.52,1.13.8,1.6.83v1.11c-1.16-.07-2.54-.12-4.15-.14-1.61-.02-3.24-.03-4.91-.03s-3.38,0-4.93.03c-1.55.02-2.8.07-3.74.14v-1.11c1.84-.07,3.02-.4,3.52-.97.51-.57.4-1.81-.33-3.7l-9-25.26,1.08-1.67-7.92,20.98c-1.08,2.97-1.62,5.2-1.6,6.7.02,1.5.47,2.51,1.36,3.03.89.52,2.05.82,3.5.89v1.11c-1.27-.07-2.43-.12-3.5-.14-1.07-.02-2.21-.03-3.44-.03-.72,0-1.46,0-2.2.03-.74.02-1.38.07-1.92.14v-1.11c.8-.15,1.6-.67,2.41-1.56.81-.89,1.62-2.43,2.41-4.62l12.2-32.16c.72.07,1.51.11,2.36.11s1.63-.04,2.36-.11ZM274.87,35.32v1.11h-16.16l.54-1.11h15.61Z" />
        <path fill="currentColor" d="M710.45,303.33v-47.85h14.79v5.01h-8.46v37.83h8.46v5.01h-14.79Z" />
        <path fill="currentColor" d="M392.28,67.29l18.36-48.41h7.9l-18.36,48.41h-7.9Z" />
        <path fill="currentColor"
            d="M508.15,296.82c-2.26,0-4.42-.38-6.48-1.14-2.06-.76-3.89-1.91-5.48-3.45-1.6-1.54-2.86-3.47-3.78-5.79-.93-2.32-1.39-5.02-1.39-8.1,0-4.04.8-7.48,2.39-10.32,1.59-2.84,3.73-5,6.4-6.48,2.67-1.48,5.64-2.23,8.9-2.23,2.34,0,4.46.47,6.37,1.42,1.91.95,3.5,2.03,4.76,3.25l-5.23,5.9c-.82-.74-1.7-1.32-2.64-1.72-.95-.41-2.03-.61-3.25-.61-1.48,0-2.82.42-4.01,1.25-1.19.83-2.13,2.03-2.84,3.59-.71,1.56-1.06,3.43-1.06,5.62s.35,4.18,1.06,5.76c.7,1.58,1.69,2.77,2.95,3.59,1.26.82,2.71,1.22,4.34,1.22,1.19,0,2.27-.28,3.26-.83.98-.56,1.86-1.24,2.64-2.06l5.23,5.79c-1.48,1.78-3.26,3.12-5.34,4.01-2.08.89-4.34,1.34-6.79,1.34Z" />
        <path fill="currentColor"
            d="M33.76,315.34l-22.87-14.59v-6.77l22.87-14.59v8.99l-14.7,8.87v.23l14.7,8.87v8.99Z" />
        <g>
            <path fill="currentColor"
                d="M150.43,296.45c-3.52-3.3-6.32-7.09-8.4-11.35-2.08-4.27-3.12-8.98-3.12-14.13s1.04-9.92,3.12-14.19c2.08-4.27,4.88-8.03,8.4-11.29l5.29,4.12c-3.15,3.26-5.42,6.57-6.82,9.9-1.39,3.34-2.09,7.16-2.09,11.46s.7,8.08,2.09,11.43c1.39,3.36,3.66,6.67,6.82,9.93l-5.29,4.12Z" />
            <path fill="currentColor"
                d="M175.25,296.45l-5.29-4.12c3.15-3.26,5.42-6.57,6.82-9.93,1.39-3.36,2.09-7.17,2.09-11.43s-.7-8.12-2.09-11.46c-1.39-3.34-3.66-6.64-6.82-9.9l5.29-4.12c3.52,3.26,6.32,7.03,8.4,11.29,2.08,4.27,3.12,9,3.12,14.19s-1.04,9.87-3.12,14.13c-2.08,4.26-4.88,8.05-8.4,11.35Z" />
        </g>
        <path fill="currentColor" d="M861.27,123.95v-36.17h7.92v28.15h12.76v8.01h-20.68Z" />
        <path fill="currentColor"
            d="M714.91,57.33v-27.82h7.12l.67,3.34h.22c.45-1.08,1.14-2.01,2.09-2.81.95-.8,2.22-1.2,3.81-1.2,1.15,0,2.14.38,2.98,1.14.83.76,1.4,1.86,1.7,3.31.41-1.19,1.11-2.23,2.11-3.12s2.3-1.34,3.9-1.34c2,0,3.54.83,4.62,2.48,1.08,1.65,1.61,3.87,1.61,6.65v19.36h-9.01v-18.69c0-1.11-.32-1.67-.95-1.67-.37,0-.71.17-1,.5-.3.33-.58.87-.83,1.61v18.25h-7.23v-18.69c0-.59-.09-1.02-.28-1.28-.19-.26-.46-.39-.83-.39-.33,0-.63.17-.89.5-.26.33-.52.87-.78,1.61v18.25h-9.01Z" />
        <path fill="currentColor"
            d="M446.71,121.04v-15.13h-7.86v-5.54h14.97v20.67h-7.11ZM450.02,97.56c-1.32,0-2.41-.38-3.27-1.14-.85-.76-1.28-1.76-1.28-3s.43-2.25,1.28-3.04c.85-.79,1.94-1.18,3.27-1.18s2.41.39,3.27,1.18c.85.79,1.28,1.8,1.28,3.04s-.43,2.24-1.28,3c-.85.76-1.94,1.14-3.27,1.14Z" />
        <path fill="currentColor"
            d="M479.29,217.42c-2.37,0-4.79-.42-7.23-1.25-2.45-.83-4.56-1.83-6.34-2.98l4.01-5.9c1.74,1.04,3.55,1.82,5.42,2.34,1.87.52,3.7.78,5.48.78,1.22,0,2.1-.16,2.64-.47.54-.31.81-.71.81-1.2,0-.33-.1-.61-.31-.83-.2-.22-.54-.42-1-.58-.46-.17-1.08-.33-1.86-.5s-1.76-.38-2.95-.64c-3.82-.85-6.52-2.01-8.1-3.48-1.58-1.46-2.36-3.27-2.36-5.42,0-2.74,1.2-4.93,3.59-6.57,2.39-1.63,5.61-2.45,9.65-2.45,2.63,0,4.98.42,7.04,1.25,2.06.83,3.83,1.72,5.31,2.64l-4.23,5.68c-1.45-.85-2.95-1.49-4.51-1.92-1.56-.43-3.06-.64-4.51-.64-.59,0-1.1.06-1.53.17-.43.11-.76.29-1,.53s-.36.53-.36.86c0,.59.43,1,1.28,1.22.85.22,2.36.59,4.51,1.11,2.78.63,4.96,1.35,6.54,2.17,1.58.82,2.68,1.77,3.31,2.87.63,1.09.95,2.42.95,3.98,0,1.74-.54,3.31-1.61,4.7-1.08,1.39-2.67,2.5-4.78,3.31-2.11.82-4.73,1.22-7.85,1.22Z" />
        <path fill="currentColor"
            d="M983.5,118.22v-5.01h2.06c1.41,0,2.48-.08,3.2-.25.72-.17,1.22-.5,1.5-1s.42-1.23.42-2.2c0-1.41-.03-2.81-.08-4.2-.06-1.39-.08-2.88-.08-4.48,0-2.23.45-3.81,1.36-4.76.91-.95,2.38-1.59,4.42-1.92v-.22c-2.04-.33-3.51-.97-4.42-1.92-.91-.95-1.36-2.53-1.36-4.76,0-1.63.03-3.13.08-4.51.06-1.37.08-2.76.08-4.17,0-.96-.14-1.7-.42-2.2s-.78-.83-1.5-1c-.72-.17-1.79-.25-3.2-.25h-2.06v-5.01h4.62c3.63,0,6.28.58,7.93,1.75,1.65,1.17,2.48,3.29,2.48,6.37,0,1.3-.05,2.4-.14,3.31-.09.91-.19,1.8-.31,2.67-.11.87-.17,1.88-.17,3.03,0,.63.22,1.24.67,1.84.45.59,1.21,1.09,2.31,1.5,1.09.41,2.61.63,4.53.67v5.56c-1.93.04-3.44.26-4.53.67-1.09.41-1.86.91-2.31,1.5-.44.59-.67,1.21-.67,1.84,0,1.15.06,2.16.17,3.03.11.87.21,1.76.31,2.67.09.91.14,2.01.14,3.31,0,3.04-.83,5.16-2.48,6.34-1.65,1.19-4.29,1.78-7.93,1.78h-4.62Z" />
        <path fill="currentColor"
            d="M273.54,172.04v38.34c0,1.56.19,2.62.58,3.17.38.56,1.05.83,2,.83v1.17c-.61-.04-1.54-.08-2.76-.14-1.23-.06-2.49-.08-3.78-.08s-2.6.03-3.92.08c-1.32.06-2.32.1-2.99.14v-1.17c.95,0,1.62-.28,2-.83.38-.56.58-1.61.58-3.17v-31.66c0-1.67-.18-2.9-.55-3.7-.37-.8-1.04-1.2-2.03-1.2v-1.17c.98.11,1.94.17,2.86.17,1.53,0,2.97-.06,4.31-.19,1.34-.13,2.57-.32,3.71-.58Z" />
        <path fill="currentColor"
            d="M736.37,216.75v-20.36h-10.57v-7.46h20.14v27.82h-9.57ZM740.82,185.15c-1.78,0-3.25-.51-4.4-1.53-1.15-1.02-1.72-2.36-1.72-4.03s.57-3.03,1.72-4.09c1.15-1.06,2.62-1.59,4.4-1.59s3.25.53,4.4,1.59c1.15,1.06,1.72,2.42,1.72,4.09s-.58,3.01-1.72,4.03c-1.15,1.02-2.62,1.53-4.4,1.53Z" />
        <path fill="currentColor"
            d="M809.31,204.43c.11-2.73.33-5.23.66-7.51.33-2.28.8-4.42,1.41-6.43.61-2.01,1.4-3.99,2.37-5.94.97-1.96,2.15-3.98,3.53-6.06h-13.67v-4.67h18.73v3.37c-1.65,2.25-2.99,4.37-4.03,6.38-1.04,2.01-1.85,4.04-2.45,6.11s-1.03,4.29-1.29,6.67c-.27,2.38-.47,5.07-.6,8.09h-4.66Z" />
        <path fill="currentColor"
            d="M31.66,118.73c.67,0,1.44-.43,2.31-1.28.87-.85,1.75-2.01,2.64-3.46.9-1.45,1.72-3.11,2.48-4.95.76-1.85,1.36-3.76,1.8-5.75l-.71,4.53c-1.59,4.48-3.2,7.64-4.81,9.48-1.61,1.85-3.25,2.77-4.93,2.77-1.31,0-2.3-.48-2.96-1.43-.66-.95-.99-2.17-.99-3.65,0-1.34.22-2.8.67-4.39.45-1.58,1.07-3.15,1.87-4.72.8-1.57,1.71-2.99,2.75-4.28,1.03-1.29,2.16-2.32,3.38-3.11,1.22-.78,2.46-1.18,3.71-1.18.98,0,1.73.48,2.25,1.45.52.97.62,2.32.31,4.05l-.46.25c.2-1.48.1-2.68-.29-3.59-.39-.91-1.04-1.36-1.93-1.36s-1.88.55-2.87,1.64c-.99,1.09-1.92,2.51-2.79,4.26-.87,1.75-1.57,3.64-2.1,5.67-.53,2.03-.8,3.97-.8,5.81,0,1.2.13,2.04.4,2.52.27.48.62.71,1.07.71ZM42.24,97.92c.67-.03,1.34-.08,2.01-.17s1.29-.22,1.85-.42l-5.25,18.55c-.06.25-.13.58-.23.99-.1.41-.1.78,0,1.11.1.34.38.5.86.5.56,0,1.1-.31,1.64-.92.53-.61,1.06-1.73,1.59-3.36l.5-1.55h.8l-1.05,3.06c-.62,1.68-1.37,2.83-2.27,3.44-.9.62-1.75.92-2.56.92-1.09,0-1.86-.36-2.31-1.09-.36-.64-.46-1.39-.29-2.25.17-.85.36-1.71.59-2.58l4.11-16.24Z" />
        <path fill="currentColor"
            d="M533.34,151.13c-1.06,0-2.12.34-3.17,1.01-1.05.68-2.01,1.6-2.88,2.78-.87,1.18-1.56,2.52-2.08,4.02-.52,1.5-.78,3.08-.78,4.74,0,1.11.27,1.91.82,2.4.55.49,1.25.74,2.12.74,1.01,0,2.04-.24,3.11-.72,1.06-.48,2.13-1.33,3.19-2.55l.84.26c-.53.72-1.23,1.42-2.1,2.09-.87.68-1.84,1.23-2.92,1.65-1.08.42-2.22.64-3.42.64-1.68,0-3.02-.4-4.03-1.21s-1.51-2.01-1.51-3.6c0-1.26.29-2.64.88-4.12.59-1.48,1.43-2.89,2.52-4.23,1.09-1.34,2.42-2.44,3.99-3.29,1.57-.85,3.33-1.28,5.29-1.28,1.23,0,2.29.25,3.19.74.9.49,1.34,1.17,1.34,2.04,0,.41-.12.82-.36,1.23-.24.4-.58.74-1.03,1-.45.26-.98.39-1.59.39s-1.02-.12-1.3-.38c-.28-.25-.42-.55-.42-.9,0-.63.32-1.17.97-1.62.64-.45,1.37-.72,2.18-.83-.28-.3-.64-.55-1.09-.74-.45-.19-1.04-.28-1.76-.28Z" />
        <path fill="currentColor"
            d="M195.52,72.49c1.57-.53,2.99-1.06,4.26-1.57,1.27-.52,2.29-1.07,3.04-1.66,1.01-.81,1.8-1.79,2.39-2.94.59-1.15.88-2.41.88-3.78,0-.81-.06-1.33-.17-1.55-.11-.22-.28-.34-.5-.34-.87,0-1.82.47-2.85,1.41-1.04.94-2.01,2.2-2.94,3.78s-1.69,3.32-2.29,5.22c-.6,1.9-.9,3.82-.9,5.75,0,1.43.27,2.46.8,3.08.53.63,1.23.94,2.1.94,1.01,0,2.07-.31,3.19-.92,1.12-.62,2.21-1.71,3.27-3.27l.67.34c-.53.92-1.23,1.82-2.1,2.69-.87.87-1.84,1.57-2.92,2.12-1.08.55-2.22.82-3.42.82-1.71,0-3.06-.5-4.05-1.49s-1.49-2.47-1.49-4.43c0-1.2.22-2.55.67-4.05.45-1.5,1.08-2.99,1.91-4.49.82-1.5,1.81-2.88,2.96-4.13,1.15-1.26,2.42-2.27,3.82-3.02s2.9-1.13,4.49-1.13c.87,0,1.6.23,2.2.69.6.46.9,1.15.9,2.08,0,1.12-.33,2.16-.99,3.13-.66.97-1.53,1.85-2.6,2.64-1.08.8-2.25,1.5-3.5,2.12-1.26.62-2.49,1.15-3.69,1.59-1.2.45-2.27.81-3.19,1.09l.04-.71Z" />
        <path fill="currentColor"
            d="M146.29,43.03c.7,0,1.49-.41,2.37-1.24s1.78-1.94,2.69-3.36c.91-1.41,1.75-3.02,2.52-4.83.77-1.8,1.38-3.67,1.83-5.6l-.63,4.53c-1.09,2.88-2.18,5.19-3.25,6.92-1.08,1.73-2.17,2.99-3.27,3.76-1.11.77-2.26,1.15-3.46,1.15-1.32,0-2.37-.46-3.17-1.36s-1.2-2.3-1.2-4.18c0-1.34.22-2.79.65-4.34.43-1.55,1.06-3.08,1.87-4.6.81-1.51,1.78-2.89,2.92-4.13,1.13-1.24,2.39-2.25,3.76-3,1.37-.76,2.83-1.13,4.36-1.13.64,0,1.24.25,1.8.73.56.49.87,1.22.92,2.2l-.34.84c-.11-1.01-.39-1.73-.84-2.16-.45-.43-.95-.65-1.51-.65-1.34,0-2.61.55-3.8,1.64-1.19,1.09-2.24,2.5-3.15,4.24-.91,1.73-1.62,3.57-2.14,5.5-.52,1.93-.78,3.73-.78,5.41,0,1.23.15,2.15.46,2.75.31.6.77.9,1.38.9ZM155.69,40.22c-.2.64-.27,1.24-.23,1.78.04.55.37.82.99.82.56,0,1.08-.31,1.55-.94.48-.63.98-1.74,1.51-3.34l.5-1.55h.8l-.97,3.06c-.53,1.71-1.27,2.85-2.2,3.44-.94.59-1.83.88-2.67.88-1.68,0-2.56-.8-2.64-2.39-.03-.45,0-.96.1-1.55.1-.59.24-1.23.44-1.93l6.04-22.7c.25-.95.21-1.65-.13-2.1-.34-.45-1.19-.67-2.56-.67l.25-.88c1.54-.03,2.9-.19,4.07-.48,1.18-.29,2.29-.71,3.36-1.24l-8.23,29.8Z" />
        <path fill="currentColor"
            d="M339.36,57.89c-.53,0-.99.11-1.38.34-.39.22-.74.48-1.05.76-.76.7-1.37,1.94-1.85,3.71-.48,1.78-.99,3.7-1.55,5.77l-7.76,28.91c-.67.03-1.33.08-1.97.17-.64.08-1.24.22-1.8.42l7.89-29.5c.59-2.24,1.21-4.08,1.87-5.54.66-1.45,1.46-2.64,2.41-3.57.64-.64,1.43-1.15,2.37-1.53.94-.38,1.9-.57,2.87-.57,1.29,0,2.27.29,2.96.86.69.57,1.03,1.28,1.03,2.12,0,.7-.27,1.36-.8,1.97-.53.62-1.2.92-2.01.92-.53,0-.95-.13-1.26-.38-.31-.25-.45-.6-.42-1.05,0-.7.22-1.29.67-1.78.45-.49,1.02-.83,1.72-1.03,0-.25-.18-.48-.55-.69-.36-.21-.83-.31-1.38-.31ZM325.84,69.35l.25-.84h12.38l-.25.84h-12.38Z" />
        <path fill="currentColor"
            d="M471.22,30.65c.59-1.73.39-2.6-.59-2.6-.64,0-1.22.35-1.72,1.05-.5.7-1.04,1.78-1.59,3.23l-.59,1.55h-.8l1.09-3.06c.64-1.76,1.45-2.92,2.43-3.48.98-.56,1.9-.84,2.77-.84,1.2,0,1.99.31,2.37.92.38.62.5,1.38.38,2.29-.13.91-.34,1.8-.65,2.67l-4.49,12.72c-.28.81-.37,1.45-.27,1.91.1.46.41.69.94.69.56,0,1.09-.31,1.59-.92.5-.61,1.06-1.73,1.68-3.36l.59-1.55h.8l-1.09,3.06c-.59,1.62-1.35,2.75-2.29,3.38-.94.63-1.9.94-2.88.94-1.2,0-2.01-.28-2.43-.84-.42-.56-.57-1.29-.46-2.18.11-.9.35-1.85.71-2.85l4.49-12.72ZM472.52,19.45c.14-.73.51-1.36,1.11-1.89.6-.53,1.25-.8,1.95-.8s1.29.27,1.7.8c.41.53.54,1.16.4,1.89-.14.73-.51,1.36-1.11,1.89-.6.53-1.27.8-1.99.8s-1.25-.27-1.66-.8c-.41-.53-.54-1.16-.4-1.89Z" />
        <path fill="currentColor"
            d="M585.93,125.93h-3.65l8.31-27.99c.28-.95.24-1.65-.1-2.1-.35-.45-1.21-.67-2.58-.67l.25-.88c1.54-.03,2.92-.19,4.15-.48,1.23-.29,2.36-.71,3.4-1.24l-9.78,33.36ZM587.11,119.72c1.06-2.94,2.08-5.43,3.04-7.47.97-2.04,1.92-3.69,2.88-4.93.95-1.24,1.93-2.15,2.94-2.71,1.01-.56,2.06-.84,3.15-.84,1.31,0,2.22.31,2.71.94.49.63.71,1.43.65,2.41-.06.98-.25,1.97-.59,2.98l-4.07,12.25c-.22.73-.32,1.34-.29,1.85.03.5.35.76.96.76.53,0,1.06-.29,1.57-.88.52-.59,1.07-1.72,1.66-3.4l.55-1.55h.8l-1.05,3.06c-.62,1.76-1.4,2.92-2.35,3.48-.95.56-1.86.84-2.73.84-1.12,0-1.9-.25-2.35-.76-.45-.5-.64-1.2-.57-2.1.07-.9.29-1.9.65-3.02l3.99-12c.14-.42.27-.91.38-1.47.11-.56.09-1.04-.06-1.45-.15-.41-.57-.61-1.24-.61-.9,0-1.85.49-2.85,1.47-1.01.98-2.03,2.36-3.06,4.13-1.03,1.78-2.03,3.88-3,6.32s-1.85,5.12-2.66,8.06l.96-5.37Z" />
        <path fill="currentColor"
            d="M641.98,117.61l.17-.63c1.76-.08,3.25-.83,4.47-2.25,1.22-1.41,2.13-3.35,2.75-5.81l4.83-17.21c.28-.95.37-1.62.27-2.01-.1-.39-.4-.59-.9-.59-.53,0-1.06.31-1.57.94-.52.63-1.06,1.74-1.62,3.34l-.55,1.55h-.8l1.01-3.06c.56-1.71,1.3-2.85,2.22-3.44.92-.59,1.9-.88,2.94-.88,1.17,0,1.95.29,2.33.86.38.57.52,1.31.42,2.2-.1.9-.29,1.83-.57,2.81l-3.23,11.46c-.53,2.1-1.25,4.03-2.14,5.79s-2.04,3.22-3.44,4.36c-.89.76-1.91,1.37-3.04,1.85-1.13.48-2.32.71-3.55.71ZM655.57,80.85c0-.73.29-1.45.88-2.16.59-.71,1.33-1.07,2.22-1.07.64,0,1.16.2,1.55.61.39.41.59.92.59,1.53,0,.76-.3,1.48-.9,2.18-.6.7-1.35,1.05-2.25,1.05-.62,0-1.12-.2-1.51-.61-.39-.41-.59-.92-.59-1.53Z" />
        <path fill="currentColor"
            d="M802.31,38.19h-3.65l5.04-18c.08-.25.16-.58.23-.99.07-.41.06-.78-.02-1.11-.08-.34-.35-.5-.8-.5-.62,0-1.18.32-1.68.97-.5.64-1.04,1.75-1.59,3.32l-.55,1.55h-.8l1.05-3.06c.62-1.76,1.4-2.92,2.35-3.48.95-.56,1.86-.84,2.73-.84,1.12,0,1.83.32,2.14.97.31.64.39,1.42.25,2.33-.14.91-.34,1.77-.59,2.58l-4.11,16.28ZM814.19,20.9c.28-.87.42-1.67.42-2.41s-.39-1.11-1.18-1.11-1.64.48-2.58,1.45c-.94.96-1.89,2.31-2.85,4.03-.96,1.72-1.9,3.72-2.79,6-.9,2.28-1.69,4.72-2.39,7.32l1.38-6.71c1.29-3.36,2.49-6.01,3.61-7.97,1.12-1.96,2.25-3.36,3.38-4.2,1.13-.84,2.34-1.26,3.63-1.26,1.2,0,1.99.34,2.35,1.03.36.69.49,1.52.38,2.5-.11.98-.29,1.92-.55,2.81l-4.28,15.82h-3.78l5.25-17.29ZM824.68,20.9c.28-.87.42-1.67.42-2.41s-.31-1.11-.92-1.11c-1.09,0-2.28.86-3.57,2.58-1.29,1.72-2.58,4.09-3.88,7.09-1.3,3.01-2.55,6.44-3.76,10.3l.96-5.37c1.09-2.91,2.1-5.38,3.02-7.41.92-2.03,1.83-3.67,2.73-4.93.9-1.26,1.82-2.18,2.77-2.75.95-.57,1.99-.86,3.11-.86,1.17,0,1.97.34,2.39,1.01s.59,1.49.52,2.46-.26,1.92-.57,2.87l-4.07,12.25c-.28.87-.38,1.52-.29,1.95.08.43.41.65.96.65s1.06-.29,1.57-.88c.52-.59,1.07-1.72,1.66-3.4l.55-1.55h.8l-1.05,3.06c-.62,1.76-1.4,2.92-2.35,3.48-.95.56-1.86.84-2.73.84-.7,0-1.25-.1-1.66-.31-.41-.21-.72-.48-.94-.82-.34-.53-.45-1.2-.34-1.99.11-.8.34-1.71.67-2.75l3.99-12Z" />
        <path fill="currentColor"
            d="M27.36,226.19c0-1.54.27-3.24.8-5.1.53-1.86,1.31-3.63,2.33-5.31,1.02-1.68,2.29-3.06,3.8-4.13,1.51-1.08,3.25-1.62,5.2-1.62,1.73,0,3.13.54,4.18,1.62,1.05,1.08,1.57,2.73,1.57,4.97,0,1.54-.27,3.24-.8,5.1-.53,1.86-1.31,3.63-2.33,5.31-1.02,1.68-2.29,3.06-3.8,4.13s-3.25,1.62-5.2,1.62c-1.74,0-3.13-.55-4.18-1.64-1.05-1.09-1.57-2.74-1.57-4.95ZM39.24,210.87c-.9,0-1.76.36-2.58,1.07-.83.71-1.58,1.68-2.27,2.9-.69,1.22-1.29,2.58-1.8,4.09s-.92,3.08-1.2,4.7c-.28,1.62-.42,3.18-.42,4.66,0,1.26.2,2.18.61,2.77.41.59,1,.88,1.78.88.9,0,1.76-.36,2.58-1.07s1.59-1.68,2.29-2.9c.7-1.22,1.3-2.58,1.8-4.09s.9-3.07,1.17-4.68.42-3.17.42-4.68c0-1.29-.2-2.22-.59-2.79-.39-.57-.99-.86-1.8-.86Z" />
        <path fill="currentColor"
            d="M90.17,236.65c.64,0,1.36-.35,2.14-1.05.78-.7,1.57-1.65,2.37-2.85.8-1.2,1.54-2.57,2.22-4.11.69-1.54,1.24-3.15,1.66-4.83l-.84,4.53c-1.46,3.58-2.9,6.08-4.32,7.51s-2.91,2.14-4.45,2.14c-1.31,0-2.37-.49-3.17-1.47s-1.2-2.46-1.2-4.45c0-1.26.17-2.64.52-4.15s.87-3.01,1.55-4.49,1.53-2.85,2.52-4.09c.99-1.24,2.13-2.24,3.42-2.98,1.29-.74,2.71-1.11,4.28-1.11.84,0,1.59.25,2.25.76.66.5,1.1,1.23,1.32,2.18l-.34.84c-.36-1.06-.8-1.8-1.32-2.2-.52-.41-1.14-.61-1.87-.61-.95,0-1.86.37-2.73,1.11s-1.67,1.73-2.39,2.96c-.73,1.23-1.36,2.6-1.91,4.09-.54,1.5-.96,2.99-1.26,4.49-.29,1.5-.44,2.87-.44,4.13s.17,2.15.52,2.75c.35.6.83.9,1.45.9ZM97.51,241.1c-.31,1.15-.2,1.94.34,2.37.53.43,1.27.65,2.22.65l-.25.88c-.56-.03-1.35-.06-2.37-.1-1.02-.04-2.11-.06-3.25-.06-.87,0-1.75.02-2.64.06-.9.04-1.57.08-2.01.1l.25-.88c1.26,0,2.19-.18,2.79-.55.6-.36,1.04-1.05,1.32-2.06l6.04-23.08c.67-.56,1.34-1.11,2.01-1.66.67-.55,1.34-1.08,2.01-1.62l.67.29c-.2.36-.36.76-.5,1.17-.14.42-.27.84-.38,1.26l-6.25,23.21Z" />
        <path fill="currentColor"
            d="M308.03,136.21c.67-.03,1.33-.08,1.99-.17.66-.08,1.27-.22,1.83-.42l-9.23,32.27c-.34,1.18-.17,1.97.5,2.39.67.42,1.64.63,2.9.63l-.25.88c-.56-.03-1.35-.06-2.37-.1-1.02-.04-2.11-.06-3.25-.06-.87,0-1.75.02-2.64.06-.89.04-1.57.08-2.01.1l.25-.88c1.01,0,1.74-.19,2.18-.57.45-.38.81-1.06,1.09-2.04l9.02-32.1ZM299.3,149.21c1.09-1.06,2.11-2.12,3.06-3.17s1.87-2.3,2.77-3.76c.9-1.45,1.8-3.29,2.73-5.5l.13.67c-.95,2.85-2.13,5.2-3.53,7.05-1.4,1.85-2.97,3.6-4.7,5.25l-.46-.55ZM314.32,143.38c-.73,0-1.55.51-2.46,1.53-.91,1.02-1.83,2.41-2.77,4.15-.94,1.75-1.82,3.71-2.64,5.9s-1.52,4.45-2.08,6.8l.75-4.53c1.82-5.48,3.55-9.39,5.18-11.71,1.64-2.32,3.38-3.48,5.22-3.48,1.31,0,2.37.49,3.17,1.47.8.98,1.2,2.46,1.2,4.45,0,1.26-.17,2.64-.52,4.15-.35,1.51-.87,3.01-1.55,4.49s-1.53,2.85-2.52,4.09c-.99,1.25-2.13,2.24-3.42,2.98-1.29.74-2.71,1.11-4.28,1.11-.84,0-1.59-.25-2.25-.76-.66-.5-1.1-1.23-1.32-2.18l.34-.84c.39,1.04.85,1.76,1.36,2.18.52.42,1.12.63,1.83.63.95,0,1.86-.37,2.73-1.11.87-.74,1.66-1.73,2.39-2.96.73-1.23,1.36-2.59,1.91-4.09.55-1.5.96-2.99,1.26-4.49s.44-2.88.44-4.13-.17-2.15-.52-2.75c-.35-.6-.83-.9-1.45-.9Z" />
        <path fill="currentColor"
            d="M356.61,294h-3.65l5.04-18c.28-.95.37-1.62.27-2.01-.1-.39-.38-.59-.86-.59-.62,0-1.17.32-1.68.97-.5.64-1.04,1.75-1.59,3.32l-.55,1.55h-.8l1.05-3.06c.62-1.76,1.4-2.92,2.35-3.48.95-.56,1.86-.84,2.73-.84,1.12,0,1.83.31,2.12.94s.37,1.39.23,2.29c-.14.9-.32,1.78-.55,2.64l-4.11,16.28ZM367.39,272.89c-.64,0-1.31.3-1.99.9-.69.6-1.38,1.47-2.1,2.6-.71,1.13-1.43,2.49-2.14,4.07-.71,1.58-1.41,3.34-2.1,5.27-.69,1.93-1.35,4.01-1.99,6.25l1.05-5.37c.92-2.74,1.78-5.05,2.58-6.92.8-1.87,1.59-3.39,2.37-4.55.78-1.16,1.59-2,2.41-2.52.83-.52,1.7-.78,2.62-.78.78,0,1.39.22,1.83.67.43.45.65,1.02.65,1.72,0,.84-.29,1.55-.88,2.14-.59.59-1.27.88-2.06.88-.48,0-.87-.13-1.2-.4-.32-.27-.48-.64-.48-1.11,0-.67.18-1.23.54-1.68.36-.45.81-.78,1.34-1.01-.06-.06-.12-.1-.19-.13-.07-.03-.16-.04-.27-.04Z" />
        <path fill="currentColor"
            d="M220.56,236.95c.22.11.47.2.73.27.27.07.66.1,1.2.1,1.23,0,2.25-.37,3.04-1.11.8-.74,1.2-1.81,1.2-3.21,0-.87-.16-1.73-.48-2.58-.32-.85-.89-1.84-1.7-2.96-.64-.9-1.26-1.81-1.85-2.75-.59-.94-.88-2.05-.88-3.34,0-1.79.64-3.23,1.91-4.32,1.27-1.09,2.8-1.64,4.6-1.64.81,0,1.61.1,2.39.29.78.2,1.43.55,1.95,1.07s.78,1.28.78,2.29c0,.39-.14.85-.42,1.38-.28.53-.78.8-1.51.8-.45,0-.84-.16-1.18-.48-.33-.32-.5-.75-.5-1.28,0-.5.1-.99.31-1.45.21-.46.5-.92.86-1.36-.53-.34-1.23-.5-2.1-.5-1.04,0-1.9.35-2.6,1.05-.7.7-1.05,1.68-1.05,2.94,0,.95.22,1.76.65,2.41.43.66,1.06,1.6,1.87,2.83.7,1.06,1.29,2.08,1.76,3.06.48.98.71,2.01.71,3.11,0,1.29-.33,2.43-.99,3.42-.66.99-1.53,1.77-2.62,2.33-1.09.56-2.29.84-3.61.84-.95,0-1.86-.14-2.73-.42-.87-.28-1.57-.72-2.12-1.32-.55-.6-.82-1.41-.82-2.41,0-.39.12-.8.36-1.24.24-.43.66-.65,1.28-.65.67,0,1.15.27,1.43.82.28.55.42,1.15.42,1.83,0,.45-.04.85-.1,1.2-.07.35-.13.68-.19.99Z" />
        <path fill="currentColor"
            d="M367.04,162.27c-.25.92-.19,1.59.19,1.99.38.41.87.61,1.49.61s1.24-.27,1.87-.8c.63-.53,1.25-1.66,1.87-3.4l.59-1.64h.8l-.88,2.64c-.62,1.82-1.41,3.06-2.37,3.74-.96.67-2.09,1.01-3.38,1.01-1.71,0-2.82-.55-3.34-1.64-.52-1.09-.53-2.5-.02-4.24l6.5-22.66c.67-.03,1.34-.08,1.99-.17s1.25-.22,1.78-.42l-7.09,24.97ZM377.69,144.27l-.13.84h-13.05l.21-.84h12.97Z" />
        <path fill="currentColor"
            d="M894.71,173.74c-1.01,2.8-1.97,5.16-2.9,7.09-.92,1.93-1.84,3.48-2.75,4.66-.91,1.17-1.83,2.03-2.77,2.56-.94.53-1.91.8-2.92.8-1.85,0-2.95-.61-3.32-1.83-.36-1.22-.24-2.72.38-4.51l4.07-12.25c.28-.84.38-1.48.29-1.93-.08-.45-.41-.67-.96-.67s-1.06.29-1.57.88-1.07,1.72-1.66,3.4l-.55,1.55h-.8l1.05-3.06c.62-1.76,1.4-2.92,2.35-3.48.95-.56,1.86-.84,2.73-.84,1.23,0,2.05.29,2.46.86.4.57.56,1.31.46,2.2-.1.9-.31,1.83-.65,2.81l-3.99,12c-.78,2.35-.48,3.53.92,3.53.84,0,1.74-.47,2.71-1.41.96-.94,1.94-2.26,2.92-3.97.98-1.71,1.93-3.73,2.85-6.06.92-2.34,1.75-4.9,2.48-7.7l-.84,5.37ZM894.58,184.69c-.2.76-.29,1.38-.27,1.87.01.49.3.73.86.73.62,0,1.18-.33,1.7-.99.52-.66,1.04-1.75,1.57-3.29l.55-1.55h.8l-1.05,3.06c-.62,1.76-1.4,2.92-2.35,3.48-.95.56-1.86.84-2.73.84-.45,0-.87-.1-1.26-.29-.39-.2-.69-.48-.88-.84-.22-.48-.3-1.08-.23-1.8.07-.73.26-1.71.57-2.94l4.11-16.28c.7-.03,1.38-.08,2.04-.17s1.25-.22,1.78-.42l-5.2,18.59Z" />
        <path fill="currentColor"
            d="M956.87,221.98c-.92,1.01-1.95,1.84-3.08,2.5-1.13.66-2.34.99-3.63.99-1.93,0-3.28-.49-4.05-1.47s-1.15-2.08-1.15-3.32c0-1.37.39-2.78,1.18-4.24.78-1.45,1.81-2.9,3.08-4.34,1.27-1.44,2.67-2.82,4.18-4.13s2.98-2.49,4.41-3.53l.67-.13c-.45.17-.92.4-1.43.69-.5.29-.99.59-1.47.88-.48.29-.94.55-1.38.76-.45.21-.87.31-1.26.31-.53,0-.99-.17-1.36-.52-.38-.35-.8-.52-1.28-.52-.45,0-.83.19-1.13.57-.31.38-.62,1.06-.92,2.04l-.5,1.55h-.8l.97-3.06c.56-1.65,1.17-2.78,1.83-3.38.66-.6,1.35-.9,2.08-.9.53,0,.99.14,1.36.42.38.28.75.55,1.13.82.38.27.83.4,1.36.4.67,0,1.27-.1,1.8-.31.53-.21,1.05-.54,1.55-.99l.59-.8.88.42c-1.93,1.62-3.76,3.38-5.5,5.27-1.74,1.89-3.15,3.88-4.26,5.96-1.11,2.08-1.66,4.26-1.66,6.53,0,1.4.21,2.38.63,2.94.42.56.98.84,1.68.84,1.79,0,3.57-1.01,5.33-3.02l.17.8ZM961.53,224.25c1.37,0,2.57-.39,3.59-1.18,1.02-.78,1.87-1.8,2.54-3.04.67-1.24,1.18-2.59,1.53-4.03.35-1.44.55-2.83.61-4.15.06-1.33-.04-2.46-.29-3.38-.53-.11-1.11-.31-1.72-.61-.62-.29-1.15-.7-1.59-1.22-.45-.52-.67-1.15-.67-1.91s.2-1.24.59-1.55c.39-.31.78-.46,1.17-.46.42,0,.79.13,1.11.38.32.25.61.6.86,1.05.25.45.48.97.67,1.57.2.6.35,1.25.46,1.95.28,1.26.39,2.67.34,4.24-.06,1.57-.29,3.14-.71,4.72-.42,1.58-1.05,3.04-1.89,4.39-.84,1.34-1.9,2.42-3.17,3.23-1.27.81-2.79,1.22-4.55,1.22-.9,0-1.72-.17-2.48-.5-.75-.34-1.36-.92-1.83-1.76s-.69-2-.69-3.48c0-1.23.2-2.43.61-3.61.41-1.17.93-2.24,1.57-3.19.64-.95,1.32-1.71,2.01-2.27.7-.56,1.34-.84,1.93-.84.42,0,.73.15.94.46.21.31.35.69.42,1.15.07.46.11.9.11,1.32,0,1.51-.41,3.05-1.24,4.62s-2.11,3.01-3.84,4.32l-.21-.76c1.32-1.03,2.36-2.29,3.15-3.78.78-1.48,1.18-2.97,1.18-4.45,0-.56-.06-1.03-.17-1.41-.11-.38-.32-.57-.63-.57-.45,0-.95.36-1.51,1.07s-1.04,1.62-1.45,2.73c-.41,1.11-.61,2.27-.61,3.5,0,1.01.12,1.99.36,2.94.24.95.64,1.73,1.22,2.35.57.62,1.34.92,2.29.92Z" />
        <path fill="currentColor"
            d="M566.32,236.95c1.31-1.2,2.48-2.62,3.48-4.24,1.01-1.62,1.78-3.12,2.31-4.49l.71.17c-.28.76-.64,1.59-1.07,2.52s-.99,1.89-1.66,2.9c-.67,1.01-1.5,2.04-2.48,3.11-.84.87-1.59,1.52-2.27,1.95-.67.43-1.33.65-1.97.65s-1.08-.14-1.41-.42c-.32-.28-.48-.66-.48-1.13,0-.53.21-1,.63-1.41.42-.41.94-.61,1.55-.61s1.17.11,1.59.34c.42.22.77.45,1.05.67ZM576.43,235.65c.11.73.29,1.23.52,1.51.24.28.54.42.9.42.42,0,.85-.24,1.3-.73.45-.49.95-1.53,1.51-3.13l.55-1.55h.8l-1.05,3.06c-.39,1.12-.85,1.99-1.36,2.6-.52.62-1.06,1.05-1.64,1.3-.57.25-1.17.38-1.78.38-.87,0-1.62-.28-2.27-.84-.64-.56-1.05-1.57-1.22-3.02l-1.68-15.02c-.11-.73-.29-1.23-.52-1.51-.24-.28-.54-.42-.9-.42-.42,0-.85.25-1.3.73-.45.49-.95,1.53-1.51,3.13l-.55,1.55h-.8l1.05-3.06c.42-1.12.88-1.99,1.38-2.6.5-.62,1.05-1.05,1.64-1.3.59-.25,1.17-.38,1.76-.38.98,0,1.76.27,2.35.82.59.55.97,1.56,1.13,3.04l1.68,15.02ZM579.96,219.32c-1.29,1.2-2.34,2.64-3.15,4.3s-1.44,3.14-1.89,4.43l-.84-.04c.25-.76.57-1.62.94-2.58s.87-1.97,1.49-3.02c.61-1.05,1.37-2.08,2.27-3.08.81-.92,1.54-1.58,2.18-1.97.64-.39,1.31-.59,2.01-.59.53,0,.97.14,1.32.42.35.28.52.66.52,1.13,0,.53-.2,1-.61,1.41-.41.41-.94.61-1.62.61-.62,0-1.15-.12-1.59-.36-.45-.24-.8-.45-1.05-.65Z" />
        <path fill="currentColor"
            d="M812.91,115.02c.81-.5,1.52-.92,2.12-1.24.6-.32,1.16-.56,1.68-.71s1.03-.23,1.53-.23c.67,0,1.3.11,1.89.34.59.22,1.19.45,1.8.67.62.22,1.27.34,1.97.34s1.29-.17,1.7-.52c.41-.35.61-.87.61-1.57,0-.76-.31-1.4-.92-1.93-.62-.53-1.41-.9-2.39-1.09l.25-.63c1.29.28,2.29.76,3,1.45.71.69,1.07,1.56,1.07,2.62,0,1.12-.36,2.13-1.09,3.04-.73.91-1.99,1.36-3.78,1.36-.73,0-1.36-.09-1.91-.27-.55-.18-1.07-.39-1.57-.63-.5-.24-1.05-.45-1.64-.63-.59-.18-1.29-.27-2.1-.27-.73,0-1.39.1-1.99.31-.6.21-1.2.62-1.78,1.24h-1.13l18.93-19.93c-.59.36-1.13.69-1.62.97-.49.28-.94.51-1.36.69-.42.18-.82.31-1.2.4s-.76.13-1.15.13c-.67,0-1.3-.11-1.89-.34-.59-.22-1.18-.45-1.78-.67-.6-.22-1.27-.34-1.99-.34s-1.26.17-1.68.5c-.42.34-.63.87-.63,1.59s.32,1.4.94,1.93c.63.53,1.42.9,2.37,1.09l-.25.63c-1.29-.31-2.29-.8-3-1.47-.71-.67-1.07-1.54-1.07-2.6,0-.76.16-1.47.48-2.14.32-.67.84-1.22,1.55-1.64.71-.42,1.66-.63,2.83-.63.73,0,1.36.09,1.91.27.55.18,1.07.39,1.57.63.5.24,1.05.45,1.64.63.59.18,1.29.27,2.1.27.73,0,1.39-.1,1.99-.31s1.2-.62,1.78-1.24h1.13l-18.93,19.93Z" />
    </symbol>
</svg>
