<?xml version="1.0" encoding="UTF-8"?>
<svg>
    <symbol id="bgMiddle" xmlns="http://www.w3.org/2000/svg" viewBox="0 0 1024 768">
        <g>
            <path fill="currentColor"
                d="M589.83,297.47l-10.01-27.82h9.57l3.62,12.13c.41,1.37.8,2.78,1.17,4.23.37,1.45.74,2.93,1.11,4.45h.22c.41-1.52.79-3,1.14-4.45.35-1.45.73-2.86,1.14-4.23l3.62-12.13h9.13l-9.68,27.82h-11.02Z" />
            <path fill="currentColor"
                d="M623.88,298.13c-1.93,0-3.56-.4-4.9-1.2-1.33-.8-2.36-1.84-3.06-3.14-.71-1.3-1.06-2.71-1.06-4.23,0-3.12,1.34-5.5,4.03-7.15,2.69-1.65,7.21-2.64,13.55-2.98-.11-.67-.39-1.21-.83-1.64-.45-.43-1.05-.74-1.81-.95-.76-.2-1.66-.31-2.7-.31-.78,0-1.58.08-2.39.25-.82.17-1.68.43-2.59.78-.91.35-1.92.79-3.03,1.31l-3.34-6.23c1.41-.78,2.84-1.45,4.28-2,1.45-.56,2.91-.97,4.4-1.25,1.48-.28,3-.42,4.56-.42,2.63,0,4.92.45,6.87,1.36,1.95.91,3.46,2.32,4.53,4.23,1.08,1.91,1.61,4.39,1.61,7.43v15.47h-7.79l-.67-2.89h-.22c-1.37,1-2.86,1.85-4.45,2.53-1.6.69-3.26,1.03-5.01,1.03ZM627,290.79c1.11,0,2.11-.21,3-.64.89-.43,1.71-.92,2.45-1.47v-3.56c-2.26.07-4.01.28-5.23.61-1.22.33-2.07.77-2.53,1.31-.46.54-.7,1.12-.7,1.75,0,.41.11.77.33,1.09.22.32.56.55,1,.7.45.15,1,.22,1.67.22Z" />
            <path fill="currentColor"
                d="M651.03,297.47v-27.82h7.85l.72,5.9h.22c1.34-2.3,2.96-3.97,4.87-5.01,1.91-1.04,3.9-1.56,5.98-1.56,1.3,0,2.31.1,3.03.31.72.2,1.47.47,2.25.81l-1.89,8.01c-.82-.26-1.58-.45-2.28-.58-.71-.13-1.56-.19-2.56-.19-1.6,0-3.17.47-4.73,1.42-1.56.95-2.86,2.59-3.89,4.92v13.8h-9.57Z" />
        </g>
        <path fill="currentColor" d="M744.01,339.08v-5.01h7v-37.83h-7v-5.01h12.24v47.85h-12.24Z" />
        <path fill="currentColor"
            d="M687.66,246.92v-26.81h-8.17v-4.62h20.96v4.62h-8.17v26.81h-4.62Z" />
        <path fill="currentColor"
            d="M951.74,74.4c-3.4,0-5.91-.53-7.53-1.58-1.63-1.05-2.44-2.99-2.44-5.82,0-1.29.04-2.44.13-3.46.09-1.02.18-2.03.27-3.03.09-1,.13-2.09.13-3.27,0-.64-.21-1.27-.64-1.88-.43-.61-1.19-1.12-2.28-1.53-1.09-.41-2.64-.62-4.64-.62v-3.75c2,0,3.55-.21,4.64-.62,1.09-.41,1.85-.92,2.28-1.53.43-.61.64-1.23.64-1.88,0-1.14-.05-2.23-.13-3.24-.09-1.02-.18-2.05-.27-3.08-.09-1.04-.13-2.18-.13-3.43,0-2.82.81-4.76,2.44-5.82,1.63-1.05,4.14-1.58,7.53-1.58h3.7v3.38h-2.47c-1.64,0-2.9.13-3.78.4-.88.27-1.47.72-1.8,1.34-.32.63-.48,1.47-.48,2.55,0,1.47.04,2.96.13,4.48.09,1.52.13,3.1.13,4.75,0,1.9-.37,3.3-1.13,4.21-.75.91-2.07,1.53-3.97,1.85v.21c1.89.32,3.22.94,3.97,1.85.75.91,1.13,2.32,1.13,4.21,0,1.72-.04,3.3-.13,4.75-.09,1.45-.13,2.94-.13,4.48,0,1.07.16,1.92.48,2.55.32.63.92,1.07,1.8,1.34.88.27,2.14.4,3.78.4h2.47v3.38h-3.7Z" />
        <path fill="currentColor"
            d="M117.09,189.1c-1.97,0-3.73-.21-5.28-.64s-2.94-1.01-4.16-1.74c-1.22-.73-2.23-1.55-3.06-2.44l2.9-3.97c1.14,1.04,2.48,1.92,3.99,2.65,1.52.73,3.21,1.1,5.07,1.1,1.39,0,2.65-.21,3.75-.62,1.11-.41,1.98-1,2.6-1.77.63-.77.94-1.69.94-2.76,0-1.18-.36-2.2-1.07-3.06-.72-.86-1.89-1.53-3.54-2.01-1.64-.48-3.88-.72-6.7-.72v-4.5c2.47,0,4.43-.24,5.9-.72,1.47-.48,2.54-1.13,3.22-1.93.68-.8,1.02-1.74,1.02-2.82,0-1.43-.55-2.55-1.64-3.35-1.09-.8-2.55-1.21-4.37-1.21-1.47,0-2.84.29-4.13.88-1.29.59-2.5,1.37-3.65,2.33l-3.22-3.81c1.57-1.29,3.3-2.32,5.17-3.11,1.88-.79,3.91-1.18,6.09-1.18,2.32,0,4.39.35,6.19,1.05,1.8.7,3.22,1.72,4.24,3.06,1.02,1.34,1.53,2.98,1.53,4.91s-.63,3.49-1.88,4.77c-1.25,1.29-2.93,2.31-5.04,3.06v.21c1.5.36,2.87.91,4.1,1.66,1.23.75,2.21,1.7,2.92,2.84.71,1.14,1.07,2.47,1.07,3.97,0,2.07-.6,3.85-1.8,5.34-1.2,1.48-2.77,2.61-4.72,3.38-1.95.77-4.1,1.15-6.46,1.15Z" />
        <path fill="currentColor"
            d="M255.39,120.77c-2.25,0-4.19-.44-5.82-1.31-1.63-.88-2.88-2.06-3.75-3.57-.88-1.5-1.31-3.16-1.31-4.99s.36-3.27,1.07-4.56c.71-1.29,1.64-2.43,2.76-3.43,1.13-1,2.31-1.92,3.57-2.76,1.25-.84,2.44-1.66,3.57-2.47s2.05-1.67,2.76-2.6c.71-.93,1.07-1.98,1.07-3.16,0-.93-.21-1.72-.62-2.36-.41-.64-1.12-.97-2.12-.97-.93,0-1.68.41-2.25,1.23-.57.82-.86,1.91-.86,3.27,0,1.54.4,3.16,1.21,4.85.8,1.7,1.87,3.41,3.19,5.12,1.32,1.72,2.8,3.33,4.42,4.85,1.63,1.52,3.26,2.87,4.91,4.05,1.21.93,2.4,1.72,3.57,2.36,1.16.64,2.24,1.11,3.24,1.39l-1.56,5.04c-1.43-.39-2.89-.99-4.37-1.8-1.48-.8-3.01-1.81-4.59-3.03-1.97-1.47-3.86-3.15-5.68-5.04-1.82-1.89-3.45-3.89-4.88-5.98-1.43-2.09-2.56-4.15-3.38-6.17-.82-2.02-1.23-3.89-1.23-5.6,0-1.61.34-3.07,1.02-4.4.68-1.32,1.63-2.38,2.84-3.16,1.21-.79,2.66-1.18,4.34-1.18,2.39,0,4.26.68,5.6,2.04,1.34,1.36,2.01,3.16,2.01,5.42,0,1.43-.33,2.73-.99,3.89-.66,1.16-1.51,2.23-2.55,3.19-1.04.97-2.14,1.89-3.3,2.76-1.16.88-2.27,1.76-3.32,2.65-1.05.89-1.91,1.84-2.57,2.84-.66,1-.99,2.11-.99,3.32,0,1.11.25,2.06.75,2.87.5.8,1.19,1.44,2.06,1.9.88.47,1.85.7,2.92.7,1.21,0,2.39-.36,3.51-1.07,1.13-.71,2.19-1.64,3.19-2.79,1.21-1.47,2.27-3.15,3.16-5.07.89-1.91,1.59-4.01,2.09-6.3h5.68c-.68,2.61-1.56,5.11-2.65,7.51-1.09,2.4-2.42,4.63-3.99,6.7-1.47,1.72-3.16,3.11-5.07,4.18-1.91,1.07-4.14,1.61-6.68,1.61Z" />
        <path fill="currentColor"
            d="M429.26,287.89c-.25-1.47-.14-2.75.32-3.86.46-1.11,1.1-2.1,1.9-2.98.8-.88,1.64-1.69,2.52-2.44.88-.75,1.62-1.52,2.23-2.31.61-.79.91-1.64.91-2.57,0-1.32-.44-2.37-1.31-3.14-.88-.77-2.08-1.15-3.62-1.15-1.22,0-2.33.25-3.35.75-1.02.5-1.98,1.18-2.87,2.04l-3.49-3.22c1.25-1.36,2.73-2.47,4.42-3.32,1.7-.86,3.6-1.29,5.71-1.29,2,0,3.79.33,5.36.99,1.57.66,2.82,1.63,3.73,2.9.91,1.27,1.37,2.83,1.37,4.69,0,1.43-.3,2.65-.91,3.67-.61,1.02-1.37,1.95-2.28,2.79-.91.84-1.79,1.65-2.63,2.44-.84.79-1.53,1.65-2.06,2.6-.54.95-.72,2.08-.54,3.41h-5.42ZM432.26,301.62c-1.29,0-2.39-.45-3.3-1.34-.91-.89-1.37-2.06-1.37-3.49s.46-2.57,1.37-3.43c.91-.86,2.01-1.29,3.3-1.29s2.43.43,3.32,1.29c.89.86,1.34,2,1.34,3.43s-.45,2.59-1.34,3.49c-.89.89-2,1.34-3.32,1.34Z" />
        <path fill="currentColor"
            d="M714.27,122.34v-6.46h30.51v6.46h-30.51ZM715.65,108.32v-6.46h30.51v6.46h-30.51ZM717.84,135.19l5.5-44.67h5.77l-5.43,44.67h-5.84ZM730.83,135.19l5.5-44.67h5.77l-5.43,44.67h-5.84Z" />
        <path fill="currentColor"
            d="M411.24,238.12v-31.43h4.86l6.89,17.66,2.39,6.69h.08c-.08-1.64-.21-3.39-.38-5.27-.17-1.88-.26-3.7-.26-5.46v-13.62h4.42v31.43h-4.86l-6.89-17.66-2.39-6.74h-.08c.08,1.67.21,3.42.38,5.25.17,1.83.26,3.63.26,5.39v13.77h-4.42Z" />
        <path fill="currentColor"
            d="M313.16,244.42c-1.73,0-3.33-.41-4.82-1.22-1.49-.81-2.7-1.98-3.63-3.51-.93-1.53-1.39-3.37-1.39-5.52s.46-4.03,1.39-5.56c.93-1.53,2.14-2.7,3.63-3.51,1.49-.81,3.09-1.22,4.82-1.22s3.33.41,4.82,1.22c1.49.81,2.7,1.98,3.63,3.51.93,1.53,1.39,3.38,1.39,5.56s-.47,3.99-1.39,5.52c-.93,1.53-2.14,2.7-3.63,3.51-1.49.81-3.1,1.22-4.82,1.22ZM313.16,240.67c1.06,0,1.98-.27,2.75-.8.77-.53,1.35-1.29,1.75-2.27.4-.98.6-2.13.6-3.43s-.2-2.44-.6-3.43c-.4-.98-.98-1.75-1.75-2.29-.77-.54-1.69-.82-2.75-.82s-1.97.27-2.73.82c-.76.54-1.34,1.31-1.75,2.29-.41.98-.62,2.13-.62,3.43s.21,2.44.62,3.43c.41.98,1,1.74,1.75,2.27.76.53,1.67.8,2.73.8Z" />
        <path fill="currentColor"
            d="M540.71,224.36c-1.99,0-3.8-.41-5.42-1.22-1.62-.81-2.91-1.99-3.87-3.53-.96-1.54-1.43-3.39-1.43-5.54s.48-3.95,1.43-5.48c.96-1.53,2.2-2.7,3.75-3.53,1.54-.82,3.19-1.24,4.94-1.24,1.94,0,3.58.4,4.92,1.2,1.34.8,2.36,1.89,3.07,3.29.7,1.39,1.06,3,1.06,4.8,0,.45-.01.89-.04,1.31-.03.43-.07.76-.12,1h-15.7v-3.23h12.71l-.88,1c0-1.94-.43-3.4-1.3-4.38-.86-.98-2.07-1.47-3.61-1.47-1.09,0-2.07.26-2.93.78-.86.52-1.55,1.28-2.05,2.27-.5,1-.76,2.21-.76,3.65,0,1.54.29,2.81.86,3.81.57,1,1.37,1.74,2.39,2.23,1.02.49,2.21.74,3.57.74,1.04,0,1.99-.15,2.87-.44.88-.29,1.75-.69,2.63-1.2l1.55,2.87c-1.04.66-2.21,1.22-3.53,1.65-1.31.44-2.69.66-4.12.66Z" />
        <path fill="currentColor"
            d="M526.82,71.23c-2.29,0-3.95-.83-4.98-2.5-1.04-1.67-1.55-4.03-1.55-7.08v-14.63h4.58v13.91c0,1.89.27,3.29.82,4.19.54.9,1.49,1.35,2.85,1.35.9,0,1.73-.26,2.49-.79.76-.53,1.56-1.44,2.41-2.72v-15.93h4.58v23.63h-3.75l-.36-3.75h-.16c-.93,1.28-1.95,2.33-3.07,3.13s-2.4,1.2-3.87,1.2Z" />
        <path fill="currentColor"
            d="M640.55,193.8c-1.73,0-3.33-.49-4.82-1.47-1.49-.98-2.7-2.39-3.63-4.24-.93-1.84-1.39-4.07-1.39-6.67s.46-4.87,1.39-6.71c.93-1.84,2.14-3.26,3.63-4.24,1.49-.98,3.09-1.47,4.82-1.47s3.33.49,4.82,1.47c1.49.98,2.7,2.39,3.63,4.24.93,1.85,1.39,4.08,1.39,6.71s-.47,4.82-1.39,6.67c-.93,1.85-2.14,3.26-3.63,4.24-1.49.98-3.1,1.47-4.82,1.47ZM640.55,189.27c1.06,0,1.98-.32,2.75-.96.77-.64,1.35-1.56,1.75-2.74.4-1.19.6-2.57.6-4.14s-.2-2.95-.6-4.14c-.4-1.19-.98-2.11-1.75-2.77-.77-.66-1.69-.99-2.75-.99s-1.97.33-2.73.99c-.76.66-1.34,1.58-1.75,2.77-.41,1.19-.62,2.57-.62,4.14s.21,2.95.62,4.14c.41,1.19,1,2.1,1.75,2.74.76.64,1.67.96,2.73.96Z" />
        <path fill="currentColor"
            d="M450.58,161.52l1.05.04c-1.51.87-2.83,1.6-3.97,2.2-1.13.6-1.7,1.18-1.7,1.74,0,.28.2.54.59.78.39.24,1.03.47,1.93.69l3.06.8c.9.22,1.7.48,2.41.78s1.28.67,1.7,1.11c.42.45.63,1.04.63,1.76s-.23,1.49-.69,2.37c-.46.88-1.17,1.73-2.14,2.54-.97.81-2.22,1.48-3.76,2.01-1.54.53-3.4.8-5.58.8-1.46,0-2.68-.13-3.67-.4-.99-.27-1.73-.64-2.22-1.11-.49-.48-.73-1.02-.73-1.64,0-.45.13-.92.38-1.41.25-.49.62-.96,1.11-1.43.49-.46,1.11-.9,1.85-1.3.74-.41,1.62-.75,2.62-1.03l.29.63c-1.04.53-1.75,1.13-2.14,1.8s-.59,1.34-.59,2.01c0,1.12.39,1.92,1.17,2.41.78.49,1.75.73,2.9.73,1.26,0,2.53-.25,3.82-.76,1.29-.5,2.36-1.16,3.23-1.97.87-.81,1.3-1.68,1.3-2.6,0-.42-.13-.7-.4-.84-.27-.14-.71-.28-1.32-.42l-6.42-1.64c-.67-.17-1.22-.45-1.64-.86-.42-.41-.63-.96-.63-1.66,0-.56.2-1.13.59-1.72.39-.59,1.13-1.24,2.22-1.95,1.09-.71,2.67-1.55,4.74-2.5ZM452.89,148.8c1.65,0,2.99.37,4.01,1.11,1.02.74,1.53,1.94,1.53,3.59,0,1.34-.38,2.67-1.13,3.99-.76,1.32-1.82,2.4-3.19,3.25-1.37.85-2.99,1.28-4.87,1.28-1.54,0-2.83-.37-3.88-1.11-1.05-.74-1.57-1.9-1.57-3.46,0-.76.16-1.63.48-2.62s.83-1.94,1.53-2.85c.7-.91,1.63-1.66,2.79-2.27,1.16-.6,2.59-.9,4.3-.9ZM452.72,149.56c-1.12,0-2.03.39-2.73,1.18-.7.78-1.23,1.72-1.59,2.81-.36,1.09-.62,2.13-.76,3.11-.14.98-.21,1.68-.21,2.1,0,.9.2,1.54.61,1.93.41.39.94.59,1.62.59,1.06,0,1.92-.32,2.58-.96.66-.64,1.17-1.44,1.53-2.39.36-.95.61-1.9.73-2.85.13-.95.19-1.75.19-2.39,0-.95-.13-1.71-.38-2.27-.25-.56-.78-.84-1.59-.84ZM455.87,150.98l-.76-.29c.39-.95,1.06-1.79,2.01-2.52.95-.73,1.94-1.09,2.98-1.09.73,0,1.31.2,1.76.61.45.41.67,1.04.67,1.91,0,.78-.2,1.36-.59,1.72-.39.36-.81.55-1.26.55s-.88-.15-1.28-.44c-.41-.29-.65-.76-.73-1.41s.1-1.47.55-2.48l.55.13c-1.18.45-2.01.92-2.52,1.41-.5.49-.97,1.13-1.38,1.91Z" />
        <path fill="currentColor"
            d="M950.71,165.65h-3.65l5.04-18c.11-.34.2-.71.27-1.11.07-.41.05-.76-.06-1.05-.11-.29-.39-.44-.84-.44-.62,0-1.16.3-1.64.9-.48.6-1.01,1.73-1.59,3.38l-.55,1.55h-.8l1.05-3.06c.62-1.76,1.38-2.92,2.29-3.48.91-.56,1.81-.84,2.71-.84,1.12,0,1.84.31,2.16.92.32.62.41,1.37.27,2.27-.14.9-.32,1.79-.55,2.69l-4.11,16.28ZM952.64,156.92c.98-2.52,1.93-4.63,2.85-6.34.92-1.71,1.83-3.08,2.73-4.13.9-1.05,1.81-1.8,2.75-2.27.94-.46,1.91-.69,2.92-.69,1.31,0,2.22.31,2.71.94.49.63.71,1.43.65,2.39-.06.97-.25,1.97-.59,3l-4.07,12.25c-.25.76-.36,1.38-.31,1.87.04.49.37.73.99.73.53,0,1.06-.29,1.57-.88.52-.59,1.07-1.72,1.66-3.4l.55-1.55h.8l-1.05,3.06c-.62,1.76-1.4,2.92-2.35,3.48-.95.56-1.86.84-2.73.84-1.26,0-2.14-.41-2.64-1.22-.31-.5-.41-1.16-.29-1.97.11-.81.34-1.71.67-2.69l3.99-12c.14-.39.26-.86.36-1.41.1-.55.08-1.03-.06-1.47-.14-.43-.54-.65-1.22-.65-.84,0-1.74.46-2.71,1.36-.97.91-1.95,2.18-2.96,3.8-1.01,1.62-1.98,3.52-2.92,5.71-.94,2.18-1.77,4.55-2.5,7.09l1.22-5.88Z" />
        <path fill="currentColor"
            d="M795.52,238.9c-.78-.39-1.51-.96-2.18-1.72-.67-.76-.96-1.69-.88-2.81.06-.64.29-1.1.69-1.36.41-.27.79-.4,1.15-.4.98,0,1.65.55,2.01,1.66.36,1.11.45,2.53.25,4.26-.2,1.65-.53,3.29-1.01,4.91s-1.08,3.15-1.83,4.57c-.74,1.43-1.63,2.7-2.67,3.82-1.04,1.12-2.2,1.99-3.48,2.62-1.29.63-2.71.94-4.28.94-1.26,0-2.25-.26-2.96-.78-.71-.52-1.21-1.17-1.49-1.97-.28-.8-.39-1.62-.34-2.46.11-1.57.59-3.25,1.45-5.06.85-1.8,1.99-3.64,3.4-5.5,1.41-1.86,3.04-3.66,4.89-5.39-.45.17-.92.4-1.43.69-.5.29-.99.59-1.47.88-.48.29-.94.55-1.39.76-.45.21-.87.31-1.26.31-.53,0-.99-.17-1.36-.52-.38-.35-.8-.52-1.28-.52-.45,0-.82.19-1.11.57-.29.38-.61,1.06-.94,2.04l-.46,1.55h-.8l.92-3.06c.48-1.68,1.07-2.81,1.78-3.4.71-.59,1.43-.88,2.16-.88.53,0,.98.14,1.34.42.36.28.73.55,1.11.82.38.27.83.4,1.36.4.67,0,1.31-.1,1.91-.31.6-.21,1.14-.54,1.62-.99l.42-.8.88.42c-1.48,1.82-2.76,3.65-3.82,5.5-1.06,1.85-1.91,3.71-2.54,5.58-.63,1.88-1.03,3.81-1.2,5.79-.11,1.62,0,2.78.36,3.48.35.7.83,1.05,1.45,1.05,1.31,0,2.53-.35,3.65-1.05,1.12-.7,2.12-1.62,3-2.77.88-1.15,1.64-2.4,2.27-3.76.63-1.36,1.12-2.69,1.47-4.01.35-1.31.55-2.49.61-3.53Z" />
    </symbol>
</svg>
